<?xml version="1.0" encoding="UTF-8" standalone="no"?>
<svg width="21px" height="20px" viewBox="0 0 21 20" version="1.1" xmlns="http://www.w3.org/2000/svg" xmlns:xlink="http://www.w3.org/1999/xlink">
    <!-- Generator: Sketch 49.3 (51167) - http://www.bohemiancoding.com/sketch -->
    <title>Page 1</title>
    <desc>Created with Sketch.</desc>
    <defs>
        <polygon id="path-1" points="0 0.598047619 18.9214667 0.598047619 18.9214667 14.1613333 0 14.1613333"></polygon>
    </defs>
    <g id="Page-1" stroke="none" stroke-width="1" fill="none" fill-rule="evenodd">
        <g id="sing_landing" transform="translate(-1374.000000, -1458.000000)">
            <g id="Group-17" transform="translate(1198.000000, 1446.000000)">
                <g id="Group-16" transform="translate(150.000000, 0.000000)">
                    <g id="Group-15" transform="translate(26.000000, 11.000000)">
                        <g id="Page-1" transform="translate(0.000000, 1.000000)">
                            <g id="Group-3">
                                <mask id="mask-2" fill="white">
                                    <use xlink:href="#path-1"></use>
                                </mask>
                                <g id="Clip-2"></g>
                                <path d="M18.0048,14.1613333 L6.85996667,14.1613333 C5.96805,14.1613333 5.20538333,13.528 5.05321667,12.6603333 L3.3858,3.15852381 C3.30971667,2.7242381 2.92838333,2.40757143 2.48288333,2.40757143 L0.9163,2.40757143 C0.4103,2.40757143 -0.000366666667,2.00314286 -0.000366666667,1.50280952 C-0.000366666667,1.00338095 0.4103,0.598047619 0.9163,0.598047619 L3.2538,0.598047619 C4.14571667,0.598047619 4.90838333,1.23138095 5.06055,2.09904762 L6.72796667,11.6017619 C6.80405,12.0351429 7.18538333,12.3518095 7.63088333,12.3518095 L18.0048,12.3518095 C18.5117167,12.3518095 18.9214667,12.7571429 18.9214667,13.2565714 C18.9214667,13.756 18.5117167,14.1613333 18.0048,14.1613333" id="Fill-1" fill="#FFFFFF" mask="url(#mask-2)"></path>
                            </g>
                            <path d="M18.8412327,10.8571429 L5.47318555,10.8571429 L5.47318555,8.9597044 L18.0421278,8.9597044 C18.4958643,8.9597044 18.8747123,8.5897039 18.9196454,8.10395965 L19.1443111,5.63728966 C19.1954115,5.07944275 18.7874892,4.59559595 18.2667935,4.59654466 L4.58333333,4.61172417 L4.58333333,2.71428571 L19.2377015,2.71428571 C19.7284418,2.71428571 20.2006802,2.93628601 20.532833,3.3252609 C20.8658668,3.71328706 21.0332647,4.23698008 20.9944989,4.76351925 L20.596268,9.12857642 C20.5240225,10.0905777 19.7522299,10.8571429 18.8412327,10.8571429" id="Fill-4" fill="#FFFFFF"></path>
                            <path d="M10,17.6428571 C10,18.3921131 9.38411458,19 8.625,19 C7.86588542,19 7.25,18.3921131 7.25,17.6428571 C7.25,16.8936012 7.86588542,16.2857143 8.625,16.2857143 C9.38411458,16.2857143 10,16.8936012 10,17.6428571 Z" id="Stroke-6" stroke="#FFFFFF" stroke-width="1.35714286"></path>
                            <path d="M16.4166667,17.6428571 C16.4166667,18.3921131 15.8007812,19 15.0416667,19 C14.2825521,19 13.6666667,18.3921131 13.6666667,17.6428571 C13.6666667,16.8936012 14.2825521,16.2857143 15.0416667,16.2857143 C15.8007812,16.2857143 16.4166667,16.8936012 16.4166667,17.6428571 Z" id="Stroke-8" stroke="#FFFFFF" stroke-width="1.35714286"></path>
                        </g>
                    </g>
                </g>
            </g>
        </g>
    </g>
</svg>