<?xml version="1.0" encoding="UTF-8" standalone="no"?>
<svg width="32px" height="32px" viewBox="0 0 32 32" version="1.1" xmlns="http://www.w3.org/2000/svg" xmlns:xlink="http://www.w3.org/1999/xlink">
    <!-- Generator: Sketch 49.3 (51167) - http://www.bohemiancoding.com/sketch -->
    <title>gift</title>
    <desc>Created with Sketch.</desc>
    <defs></defs>
    <g id="Page-1" stroke="none" stroke-width="1" fill="none" fill-rule="evenodd">
        <g id="sing_landing" transform="translate(-236.000000, -1699.000000)" fill="#FFCD42" fill-rule="nonzero">
            <g id="gift" transform="translate(236.000000, 1699.000000)">
                <path d="M29.1875,7.5 L25.3724375,7.5 C25.9623125,6.716 26.3125,5.7419375 26.3125,4.6875 C26.3125,2.1028125 24.2096875,0 21.625,0 C20.0680625,0 18.92,0.5578125 18.0119375,1.7554375 C17.25225,2.7574375 16.69675,4.1564375 16,5.9240625 C15.30325,4.156375 14.74775,2.7574375 13.9880625,1.7554375 C13.08,0.5578125 11.9319375,0 10.375,0 C7.7903125,0 5.6875,2.1028125 5.6875,4.6875 C5.6875,5.7419375 6.0376875,6.716 6.6275625,7.5 L2.8125,7.5 C1.2616875,7.5 0,8.7616875 0,10.3125 L0,12.1875 C0,13.4096875 0.7838125,14.45175 1.875,14.83875 L1.875,29.1875 C1.875,30.7383125 3.1366875,32 4.6875,32 L27.3125,32 C28.8633125,32 30.125,30.7383125 30.125,29.1875 L30.125,14.83875 C31.2161875,14.45175 32,13.4096875 32,12.1875 L32,10.3125 C32,8.7616875 30.7383125,7.5 29.1875,7.5 Z M17.720875,6.67125 C19.1570625,3.027625 19.7030625,1.875 21.625,1.875 C23.1758125,1.875 24.4375,3.1366875 24.4375,4.6875 C24.4375,6.2383125 23.1758125,7.5 21.625,7.5 L17.3929375,7.5 C17.5078125,7.2115625 17.617375,6.933875 17.720875,6.67125 Z M10.375,1.875 C12.2969375,1.875 12.8429375,3.027625 14.279125,6.67125 C14.382625,6.933875 14.4921875,7.2115625 14.6070625,7.5 L10.375,7.5 C8.8241875,7.5 7.5625,6.2383125 7.5625,4.6875 C7.5625,3.1366875 8.8241875,1.875 10.375,1.875 Z M12.25,30.125 L4.6875,30.125 C4.1705625,30.125 3.75,29.7044375 3.75,29.1875 L3.75,15 L12.25,15 L12.25,30.125 Z M12.25,13.125 L2.8125,13.125 C2.2955625,13.125 1.875,12.7044375 1.875,12.1875 L1.875,10.3125 C1.875,9.7955625 2.2955625,9.375 2.8125,9.375 L12.25,9.375 L12.25,13.125 Z M17.875,30.125 L14.125,30.125 L14.125,9.375 C14.3214375,9.375 16.7975,9.375 17.875,9.375 L17.875,30.125 Z M28.25,29.1875 C28.25,29.7044375 27.8294375,30.125 27.3125,30.125 L19.75,30.125 L19.75,15 L28.25,15 L28.25,29.1875 Z M30.125,12.1875 C30.125,12.7044375 29.7044375,13.125 29.1875,13.125 L19.75,13.125 L19.75,9.375 L29.1875,9.375 C29.7044375,9.375 30.125,9.7955625 30.125,10.3125 L30.125,12.1875 Z" id="Shape"></path>
            </g>
        </g>
    </g>
</svg>