<?xml version="1.0" encoding="UTF-8" standalone="no"?>
<svg width="29px" height="31px" viewBox="0 0 29 31" version="1.1" xmlns="http://www.w3.org/2000/svg" xmlns:xlink="http://www.w3.org/1999/xlink">
    <!-- Generator: Sketch 49.3 (51167) - http://www.bohemiancoding.com/sketch -->
    <title>github</title>
    <desc>Created with Sketch.</desc>
    <defs>
        <path d="M11.5602022,25.2657141 C8.70540725,26.1221526 7.55183035,25.668876 6.12409405,23.9010629 C6.02943515,23.7838569 5.63257187,23.2800556 5.52638285,23.1488364 C4.67315935,22.0944959 3.99047675,21.5226384 2.97546199,21.2688847 C2.2645536,21.0911576 1.54417221,21.5233864 1.36644511,22.2342948 C1.18871801,22.9452032 1.62094685,23.6655846 2.33185524,23.8433117 C2.63753606,23.9197319 2.9447677,24.1770883 3.46356265,24.8181706 C3.55539518,24.9316494 3.95118508,25.434088 4.05963938,25.5683754 C6.12183033,28.1217658 8.35287482,28.9984133 12.3227253,27.8074581 C13.0246086,27.5968931 13.4229007,26.8572077 13.2123357,26.1553245 C13.0017708,25.4534413 12.2620854,25.0551492 11.5602022,25.2657141 Z M29.8536594,12.631415 C29.8533057,10.7074874 29.2041556,8.84846437 28.0240573,7.34880247 C28.4773341,5.62238036 28.3458879,3.78557263 27.6367032,2.13095565 C27.4813066,1.76839586 27.1726492,1.49377622 26.7944752,1.38160598 C26.7184832,1.35906597 26.6258053,1.33867024 26.516582,1.32281575 C25.2695802,1.14180496 23.4415294,1.63411346 20.9917225,3.18816757 C18.0944806,2.5004622 15.0762521,2.5004622 12.1790101,3.18816757 C9.72920321,1.63411346 7.90115243,1.14180496 6.65415059,1.32281575 C6.54492737,1.33867024 6.45224947,1.35906597 6.37625742,1.38160598 C5.99808346,1.49377622 5.68942604,1.76839586 5.53402944,2.13095565 C4.82484726,3.78556684 4.69339946,5.62236751 5.14667054,7.34878436 C3.95663043,8.86101559 3.3067788,10.7382921 3.31709201,12.6782734 C3.31707539,18.796586 6.05005867,21.7880665 11.0135491,22.9270967 C10.6955051,23.7273955 10.5561509,24.5973175 10.617904,25.4753339 L10.6146344,30.517074 C10.6146344,31.2498616 11.2086762,31.8439033 11.9414637,31.8439033 C12.6742513,31.8439033 13.2682931,31.2498616 13.2682931,30.517074 L13.2682931,25.3822446 C13.202385,24.3985502 13.5212742,23.5233013 14.1421482,22.8817279 C14.9033184,22.0951811 14.4384261,20.7772235 13.352224,20.642313 C8.31730144,20.0169564 5.97073187,18.0438142 5.97073187,12.6712199 C5.96261571,11.1409896 6.54480202,9.67388007 7.59510342,8.57070283 C7.94523247,8.20294706 8.05477003,7.66761684 7.87723143,7.19189139 C7.49583239,6.16990952 7.43520833,5.06336888 7.69190269,4.01706056 C7.78505784,4.03811269 7.88722628,4.06427039 7.99863686,4.0963423 C8.85360742,4.34246382 9.91911307,4.85907575 11.2026787,5.71948789 C11.5217323,5.93335898 11.9178118,5.99847156 12.2885417,5.89799588 C15.1023368,5.13539758 18.0683958,5.13539758 20.882191,5.89799588 C21.2529209,5.99847156 21.6490003,5.93335898 21.9680539,5.71948789 C23.2516196,4.85907575 24.3171252,4.34246382 25.1720958,4.0963423 C25.2835064,4.06427039 25.3856748,4.03811269 25.4788299,4.01706056 C25.7355243,5.06336888 25.6749002,6.16990952 25.2935012,7.19189139 C25.115966,7.66760766 25.2254957,8.20292732 25.5756105,8.57068316 C26.6181356,9.66573751 27.1997229,11.1197057 27.2000008,12.6316589 C27.2000008,18.0550874 24.835669,20.0431651 19.8350646,20.6005574 C18.7390614,20.7227233 18.2617982,22.0509758 19.0294015,22.8427666 C19.6578438,23.4910114 19.9773337,24.3781056 19.9065262,25.2781874 L19.9024396,30.517074 C19.9024396,31.2498616 20.4964813,31.8439033 21.2292689,31.8439033 C21.9620565,31.8439033 22.5560982,31.2498616 22.5560982,30.517074 L22.5560982,25.3822446 C22.6235115,24.5530831 22.4876212,23.7011615 22.1705228,22.9053061 C27.1069015,21.8108984 29.8536594,18.7907526 29.8536594,12.631415 Z" id="path-1"></path>
    </defs>
    <g id="Page-1" stroke="none" fill="none" fill-rule="evenodd">
        <g id="sing_landing" transform="translate(-317.000000, -775.000000)">
            <g id="Group" transform="translate(286.000000, 752.000000)">
                <g id="github" transform="translate(30.000000, 22.000000)">
                    <mask id="mask-2" fill="white">
                        <use xlink:href="#path-1"></use>
                    </mask>
                    <use id="Shape" fill="#537EFF" fill-rule="nonzero" xlink:href="#path-1"></use>
                    <g id="COLOR/-indigo" mask="url(#mask-2)" fill="#537EFF" fill-rule="evenodd">
                        <rect id="Rectangle" x="0" y="0" width="32.3493621" height="32.3493621"></rect>
                    </g>
                </g>
            </g>
        </g>
    </g>
</svg>