<?xml version="1.0" encoding="UTF-8" standalone="no"?>
<svg width="1213px" height="912px" viewBox="0 0 1213 912" version="1.1" xmlns="http://www.w3.org/2000/svg" xmlns:xlink="http://www.w3.org/1999/xlink">
    <!-- Generator: Sketch 49.3 (51167) - http://www.bohemiancoding.com/sketch -->
    <title>Group 20</title>
    <desc>Created with Sketch.</desc>
    <defs>
        <linearGradient x1="50%" y1="0%" x2="50%" y2="100%" id="linearGradient-1">
            <stop stop-color="#FFCD42" offset="0%"></stop>
            <stop stop-color="#FFD074" offset="100%"></stop>
        </linearGradient>
        <linearGradient x1="50%" y1="8.61779604%" x2="50%" y2="91.5687334%" id="linearGradient-2">
            <stop stop-color="#B1CAFF" offset="0%"></stop>
            <stop stop-color="#88ADFF" offset="100%"></stop>
        </linearGradient>
    </defs>
    <g id="Page-1" stroke="none" stroke-width="1" fill="none" fill-rule="evenodd">
        <g id="sing_landing-copy" transform="translate(-707.000000, 0.000000)">
            <g id="Group-20" transform="translate(620.000000, -325.000000)">
                <rect id="Rectangle-16-Copy" fill="url(#linearGradient-1)" opacity="0.25" transform="translate(1154.207927, 662.382348) rotate(-288.000000) translate(-1154.207927, -662.382348) " x="816.398973" y="-441.462903" width="675.617906" height="2207.6905" rx="337.808953"></rect>
                <rect id="Rectangle-16-Copy-16" fill="url(#linearGradient-1)" opacity="0.419426306" transform="translate(989.738071, 298.693710) rotate(8.000000) translate(-989.738071, -298.693710) " x="952.738071" y="183.023712" width="74" height="231.339996" rx="37"></rect>
                <rect id="Rectangle-16-Copy-20" fill="#FFFFFF" transform="translate(1232.618753, 435.700637) rotate(27.000000) translate(-1232.618753, -435.700637) " x="1219.61875" y="360.730635" width="26" height="149.940002" rx="13"></rect>
                <rect id="Rectangle-16-Copy-28" fill="#FFFFFF" transform="translate(1356.553625, 893.827257) rotate(101.000000) translate(-1356.553625, -893.827257) " x="1330.55363" y="818.857256" width="52" height="149.940002" rx="26"></rect>
                <rect id="Rectangle-16-Copy-17" fill="url(#linearGradient-2)" opacity="0.258628731" transform="translate(1115.193417, 1139.193417) rotate(8.000000) translate(-1115.193417, -1139.193417) " x="1080.49182" y="1104.49182" width="69.4032022" height="69.4032022" rx="34.7016011"></rect>
                <rect id="Rectangle-16-Copy-18" fill="url(#linearGradient-2)" opacity="0.313491138" transform="translate(177.071059, 687.071059) rotate(8.000000) translate(-177.071059, -687.071059) " x="154.071059" y="664.071059" width="46" height="46" rx="23"></rect>
                <rect id="Rectangle-16-Copy-26" fill="url(#linearGradient-2)" transform="translate(690.167347, 1040.081291) rotate(8.000000) translate(-690.167347, -1040.081291) " x="668.667347" y="1018.58129" width="43" height="43" rx="21.5"></rect>
            </g>
        </g>
    </g>
</svg>