<?xml version="1.0" encoding="UTF-8" standalone="no"?>
<svg width="20px" height="18px" viewBox="0 0 20 18" version="1.1" xmlns="http://www.w3.org/2000/svg" xmlns:xlink="http://www.w3.org/1999/xlink">
    <!-- Generator: Sketch 49.3 (51167) - http://www.bohemiancoding.com/sketch -->
    <title>monitor</title>
    <desc>Created with Sketch.</desc>
    <defs>
        <path d="M10.816,14.9759999 L10.816,16.6399999 L13.3119999,16.6399999 C13.7715008,16.6399999 14.1439999,17.012499 14.1439999,17.4719999 C14.1439999,17.9315008 13.7715008,18.3039999 13.3119999,18.3039999 L6.65599997,18.3039999 C6.19649906,18.3039999 5.82399997,17.9315008 5.82399997,17.4719999 C5.82399997,17.012499 6.19649906,16.6399999 6.65599997,16.6399999 L9.15199996,16.6399999 L9.15199996,14.9759999 L3.32799998,14.9759999 C1.94949726,14.9759999 0.831999996,13.8585027 0.831999996,12.4799999 L0.831999996,4.15999998 C0.831999996,2.78149725 1.94949726,1.66399999 3.32799998,1.66399999 L16.6399999,1.66399999 C18.0185027,1.66399999 19.1359999,2.78149725 19.1359999,4.15999998 L19.1359999,12.4799999 C19.1359999,13.8585027 18.0185027,14.9759999 16.6399999,14.9759999 L10.816,14.9759999 Z M3.32799998,3.32799998 C2.86849907,3.32799998 2.49599999,3.70049907 2.49599999,4.15999998 L2.49599999,12.4799999 C2.49599999,12.9395009 2.86849907,13.3119999 3.32799998,13.3119999 L16.6399999,13.3119999 C17.0995008,13.3119999 17.4719999,12.9395009 17.4719999,12.4799999 L17.4719999,4.15999998 C17.4719999,3.70049907 17.0995008,3.32799998 16.6399999,3.32799998 L3.32799998,3.32799998 Z" id="path-1"></path>
    </defs>
    <g id="Page-1" stroke="none" stroke-width="1" fill="none" fill-rule="evenodd">
        <g id="sing_landing" transform="translate(-1220.000000, -1459.000000)">
            <g id="Group-17" transform="translate(1198.000000, 1446.000000)">
                <g id="Group-14">
                    <g id="Group-13" transform="translate(22.000000, 11.000000)">
                        <g id="monitor" transform="translate(0.000000, 1.000000)">
                            <mask id="mask-2" fill="white">
                                <use xlink:href="#path-1"></use>
                            </mask>
                            <use id="Combined-Shape" fill="#000000" fill-rule="nonzero" xlink:href="#path-1"></use>
                            <g id="COLOR/-white" mask="url(#mask-2)" fill="#FFFFFF" fill-rule="evenodd">
                                <rect id="Rectangle" x="0" y="0" width="19.7214814" height="19.7214814"></rect>
                            </g>
                        </g>
                    </g>
                </g>
            </g>
        </g>
    </g>
</svg>