<?xml version="1.0" encoding="UTF-8" standalone="no"?>
<svg width="391px" height="366px" viewBox="0 0 391 366" version="1.1" xmlns="http://www.w3.org/2000/svg" xmlns:xlink="http://www.w3.org/1999/xlink">
    <!-- Generator: Sketch 49.3 (51167) - http://www.bohemiancoding.com/sketch -->
    <title>Group 4</title>
    <desc>Created with Sketch.</desc>
    <defs></defs>
    <g id="Page-1" stroke="none" stroke-width="1" fill="none" fill-rule="evenodd">
        <g id="sing_landing-copy" transform="translate(-1250.000000, -3211.000000)">
            <g id="Group-4" transform="translate(1224.000000, 3185.000000)">
                <g id="cloud-computing" transform="translate(179.072727, 171.156576)" fill="#537EFF" fill-rule="nonzero">
                    <path d="M36.0818182,72.364109 L36.0818182,50.932453 C36.0818182,50.1938054 35.4836618,49.5952923 34.7454545,49.5952923 L25.8363636,49.5952923 C25.0981564,49.5952923 24.5,50.1938054 24.5,50.932453 C24.5,51.6711006 25.0981564,52.2696138 25.8363636,52.2696138 L33.4090909,52.2696138 L33.4090909,72.364109 C30.8584182,72.9695754 28.9545455,75.2662827 28.9545455,78.0010438 C28.9545455,81.1961449 31.5522582,83.7954071 34.7454545,83.7954071 C37.9386509,83.7954071 40.5363636,81.1961449 40.5363636,78.0010438 C40.5363636,75.2662827 38.6324909,72.9695754 36.0818182,72.364109 Z M34.7454545,81.1210856 C33.0261782,81.1210856 31.6272727,79.7213457 31.6272727,78.0010438 C31.6272727,76.280742 33.0261782,74.8810021 34.7454545,74.8810021 C36.4647309,74.8810021 37.8636364,76.280742 37.8636364,78.0010438 C37.8636364,79.7213457 36.4647309,81.1210856 34.7454545,81.1210856 Z" id="Shape"></path>
                    <path d="M50.3363636,72.364109 L50.3363636,50.932453 C50.3363636,50.1938054 49.7382073,49.5952923 49,49.5952923 L40.0910873,49.5952923 C39.35288,49.5952923 38.7547236,50.1938054 38.7547236,50.932453 C38.7547236,51.6711006 39.35288,52.2696138 40.0910873,52.2696138 L47.6636364,52.2696138 L47.6636364,72.364109 C45.1129636,72.9695754 43.2090909,75.2662827 43.2090909,78.0010438 C43.2090909,81.1961449 45.8068036,83.7954071 49,83.7954071 C52.1931964,83.7954071 54.7909091,81.1961449 54.7909091,78.0010438 C54.7909091,75.2662827 52.8870364,72.9695754 50.3363636,72.364109 Z M49,81.1210856 C47.2807236,81.1210856 45.8818182,79.7213457 45.8818182,78.0010438 C45.8818182,76.280742 47.2807236,74.8810021 49,74.8810021 C50.7192764,74.8810021 52.1181818,76.280742 52.1181818,78.0010438 C52.1181818,79.7213457 50.7192764,81.1210856 49,81.1210856 Z" id="Shape"></path>
                    <path d="M73.0545455,63.2922756 C70.3214145,63.2922756 68.0260764,65.1972839 67.4209709,67.7494781 L64.5909091,67.7494781 L64.5909091,50.932453 C64.5909091,50.1938054 63.9927527,49.5952923 63.2545455,49.5952923 L54.3454545,49.5952923 C53.6072473,49.5952923 53.0090909,50.1938054 53.0090909,50.932453 C53.0090909,51.6711006 53.6072473,52.2696138 54.3454545,52.2696138 L61.9181818,52.2696138 L61.9181818,69.0866388 C61.9181818,69.8252864 62.5163382,70.4237996 63.2545455,70.4237996 L67.4209709,70.4237996 C68.0260764,72.9759937 70.3214145,74.8810021 73.0545455,74.8810021 C76.2477418,74.8810021 78.8454545,72.2817399 78.8454545,69.0866388 C78.8454545,65.8915378 76.2477418,63.2922756 73.0545455,63.2922756 Z M73.0545455,72.2066806 C71.3352691,72.2066806 69.9363636,70.8069407 69.9363636,69.0866388 C69.9363636,67.366337 71.3352691,65.9665971 73.0545455,65.9665971 C74.7738218,65.9665971 76.1727273,67.366337 76.1727273,69.0866388 C76.1727273,70.8069407 74.7738218,72.2066806 73.0545455,72.2066806 Z" id="Shape"></path>
                    <path d="M80.5633055,28.8036906 C78.7622436,26.5661749 76.3159855,24.9084522 73.59408,24.0626534 C73.2876073,17.732891 70.6629891,11.8270977 66.1389527,7.33815992 C61.3697382,2.60603716 55.0442836,0 48.3275418,0 C39.5073636,0 31.3457455,4.60197244 26.7557818,12.0856154 C25.6396509,11.7334965 24.4795091,11.5557432 23.2929964,11.5557432 C17.83404,11.5557432 13.1396618,15.4114017 12.0076727,20.6671566 C4.99693091,22.4869432 0,28.8805328 0,36.2104914 C0,45.0655265 7.19961455,52.2696138 16.0493709,52.2696138 L19.1545455,52.2696138 L19.1545455,67.7494781 L16.3244836,67.7494781 C15.7193782,65.1972839 13.42404,63.2922756 10.6909091,63.2922756 C7.49771273,63.2922756 4.9,65.8915378 4.9,69.0866388 C4.9,72.2817399 7.49771273,74.8810021 10.6909091,74.8810021 C13.42404,74.8810021 15.7193782,72.9759937 16.3244836,70.4237996 L20.4909091,70.4237996 C21.2291164,70.4237996 21.8272727,69.8252864 21.8272727,69.0866388 L21.8272727,50.932453 C21.8272727,50.1938054 21.2291164,49.5952923 20.4909091,49.5952923 L16.0493709,49.5952923 C8.67353455,49.5952923 2.67272727,43.5909056 2.67272727,36.2104914 C2.67272727,29.8415056 7.19765455,24.3208146 13.43188,23.0836735 C13.9940436,22.9722434 14.4227491,22.5143996 14.4970509,21.9456605 C15.0724,17.5471148 18.8537745,14.230243 23.2929964,14.230243 C24.5142545,14.230243 25.6986291,14.4750326 26.8131564,14.9576585 C27.4449891,15.2313307 28.1807018,14.9799445 28.5135455,14.377509 C32.5019673,7.1586238 40.0942945,2.6743215 48.3275418,2.6743215 C60.6905091,2.6743215 70.8390327,12.7365453 70.9505745,25.105104 C70.9560982,25.7230505 71.3840909,26.2564885 71.9856327,26.3957315 C77.3360764,27.6346555 81.0729055,32.341818 81.0729055,37.8423624 C81.0729055,44.3229566 75.8038909,49.5952923 69.32716,49.5952923 L68.6,49.5952923 C67.8617927,49.5952923 67.2636364,50.1938054 67.2636364,50.932453 C67.2636364,51.6711006 67.8617927,52.2696138 68.6,52.2696138 L69.3269818,52.2696138 C77.2772764,52.2696138 83.7454545,45.7975775 83.7454545,37.8423624 C83.7454545,34.5627528 82.6152473,31.3526756 80.5633055,28.8036906 Z M10.6909091,72.2066806 C8.97163273,72.2066806 7.57272727,70.8069407 7.57272727,69.0866388 C7.57272727,67.366337 8.97163273,65.9665971 10.6909091,65.9665971 C12.4101855,65.9665971 13.8090909,67.366337 13.8090909,69.0866388 C13.8090909,70.8069407 12.4101855,72.2066806 10.6909091,72.2066806 Z" id="Shape"></path>
                    <path d="M65.1596655,26.4945031 L65.17196,26.4945031 C65.9099891,26.4877282 66.5028,25.8836881 66.4962073,25.1452188 C66.4762509,22.9426476 66.0607309,20.7873228 65.2612291,18.7391491 C64.9925309,18.0513136 64.2177964,17.7113182 63.5301927,17.9799983 C62.8425891,18.2486785 62.5029745,19.0240534 62.7714945,19.7120672 C63.4525055,21.456438 63.8063745,23.2926271 63.8233018,25.169466 C63.8302509,25.9040129 64.42716,26.4945031 65.1596655,26.4945031 Z" id="Shape"></path>
                    <path d="M60.2749891,15.4675624 C60.5392327,15.7877678 60.9210764,15.9532192 61.3059491,15.9532192 C61.6058291,15.9532192 61.9073127,15.852843 62.1562327,15.6469203 C62.7251673,15.1765962 62.8055273,14.3338284 62.3354836,13.7643762 C58.8555927,9.54911065 53.7497927,7.13152401 48.32772,7.13152401 C47.5895127,7.13152401 46.9913564,7.73003716 46.9913564,8.46868476 C46.9913564,9.20733236 47.5895127,9.80584551 48.32772,9.80584551 C52.9497564,9.80584551 57.3043418,11.869352 60.2749891,15.4675624 Z" id="Shape"></path>
                </g>
                <ellipse id="Oval-10" stroke="#FFCD42" stroke-width="0.5" opacity="0.710179571" cx="215.154545" cy="200.783699" rx="176.4" ry="164.642633"></ellipse>
                <ellipse id="Oval-10-Copy" stroke="#FFCD42" stroke-width="0.5" opacity="0.853428172" transform="translate(220.359921, 213.137147) rotate(-19.000000) translate(-220.359921, -213.137147) " cx="220.359921" cy="213.137147" rx="176.4" ry="164.642633"></ellipse>
                <g id="lock" transform="translate(339.436364, 257.626305)">
                    <rect id="cont" fill="#181818" opacity="0" x="0" y="0" width="69.4909091" height="69.5323591"></rect>
                    <rect id="Rectangle-63" stroke="#537EFF" stroke-width="3.11351005" fill="#FFFFFF" x="12.6347107" y="30.0253369" width="44.2214876" height="34.7661795" rx="3.11351005"></rect>
                    <path d="M47.3801653,17.3830898 C47.3801653,10.4009695 41.7234126,4.74084266 34.7454545,4.74084266 C27.7674965,4.74084266 22.1107438,10.4009695 22.1107438,17.3830898" id="Oval-21" stroke="#537EFF" stroke-width="3.11351005"></path>
                    <path d="M22.1107438,17.3830898 L22.1107438,30.0253369" id="Path-66" stroke="#537EFF" stroke-width="3.11351005"></path>
                    <path d="M47.3801653,17.3830898 L47.3801653,30.0253369" id="Path-66-Copy" stroke="#537EFF" stroke-width="3.11351005"></path>
                    <path d="M31.5867769,47.7815412 C30.6174587,46.9134605 30.007438,45.6519441 30.007438,44.2478649 C30.007438,41.6295698 32.1287203,39.5070222 34.7454545,39.5070222 C37.3621888,39.5070222 39.4834711,41.6295698 39.4834711,44.2478649 C39.4834711,45.6519441 38.8734504,46.9134605 37.9041322,47.7815412 L37.9041322,52.188637 C37.9041322,53.9124249 36.5021063,55.3098311 34.7824695,55.3098311 L34.7084395,55.3098311 C32.9843928,55.3098311 31.5867769,53.9202195 31.5867769,52.188637 L31.5867769,47.7815412 Z" id="Oval-23" stroke="#537EFF" stroke-width="3.11351005"></path>
                </g>
                <g id="set" transform="translate(37.418182, 262.974948)">
                    <rect id="cont" fill="#181818" opacity="0" x="0" y="0" width="58.8" height="58.8965517"></rect>
                    <path d="M35.3704165,10.2755556 C38.2419513,11.1717426 40.8363832,12.6973241 42.9928206,14.6911441 L46.2890064,13.2029487 C47.6348834,12.5952985 49.3287331,13.1467821 50.0610274,14.415153 L52.7362919,19.0488471 C53.4736445,20.3259793 53.1019485,22.0579448 51.9000811,22.9216153 L48.9596034,25.0346635 C49.2776416,26.4548642 49.4454545,27.9319404 49.4454545,29.4482759 C49.4454545,30.9646331 49.2776368,32.44173 48.9595897,33.8619495 L51.9000521,35.9749867 C53.0992312,36.8367253 53.4685571,38.579384 52.7362629,39.8477549 L50.0609983,44.481449 C49.3236457,45.7585812 47.6378716,46.3026658 46.2889773,45.6936533 L42.9927745,44.2054502 C40.8363313,46.1992632 38.2418947,47.7248367 35.3703566,48.6210148 L35.0110167,52.2203139 C34.8643187,53.6897027 33.539795,54.8808777 32.0752065,54.8808777 L26.7246774,54.8808777 C25.2499722,54.8808777 23.935894,53.6929968 23.7888672,52.2203139 L23.4295236,48.6209774 C20.5580042,47.7247852 17.9635865,46.1992047 15.8071604,44.20539 L12.5109356,45.693603 C11.1650585,46.3012533 9.47120886,45.7497696 8.73891459,44.4813987 L6.06365004,39.8477046 C5.32629743,38.5705724 5.69799342,36.8386069 6.89986082,35.9749364 L9.84038855,33.8618523 C9.52235553,32.4416626 9.35454545,30.9645985 9.35454545,29.4482759 C9.35454545,27.9319314 9.52236036,26.4548466 9.84040227,25.0346382 L6.89988985,22.921565 C5.70071078,22.0598264 5.3313848,20.3171677 6.06367907,19.0487969 L8.73894362,14.4151027 C9.47629623,13.1379705 11.1620704,12.593886 12.5109646,13.2028984 L15.8072065,14.6911191 C17.9636384,12.6973114 20.5580607,11.1717389 23.4295835,10.2755556 L23.7889252,6.67623784 C23.9356232,5.20684899 25.2601469,4.01567398 26.7247354,4.01567398 L32.0752646,4.01567398 C33.5499698,4.01567398 34.8640479,5.20355491 35.0110748,6.67623784 L35.3704165,10.2755556 Z" id="Rectangle-15" stroke="#537EFF" stroke-width="2.67299992" fill="#FFFFFF"></path>
                    <ellipse id="Oval-2" stroke="#537EFF" stroke-width="2.67299992" cx="29.4" cy="29.4482759" rx="9.35454545" ry="9.36990596"></ellipse>
                </g>
                <g id="user_card" transform="translate(322.509091, 62.400835)">
                    <rect id="card" fill="#181818" opacity="0" x="0" y="0" width="58.8" height="58.8965517"></rect>
                    <path d="M6.68563914,10.7084639 C5.20742237,10.7084639 4.00909091,11.913029 4.00909091,13.3738599 L4.00909091,45.5226918 C4.00909091,46.9947493 5.21429151,48.1880878 6.68563914,48.1880878 L52.1143609,48.1880878 C53.5925776,48.1880878 54.7909091,46.9835228 54.7909091,45.5226918 L54.7909091,13.3738599 C54.7909091,11.9018024 53.5857085,10.7084639 52.1143609,10.7084639 L6.68563914,10.7084639 Z" id="Path-31" stroke="#537EFF" stroke-width="2.67299992" fill="#FFFFFF"></path>
                    <rect id="Rectangle-97" stroke="#537EFF" stroke-width="2.67299992" fill="#FFFFFF" stroke-linecap="round" stroke-linejoin="round" x="9.35454545" y="16.0626959" width="16.0363636" height="21.4169279"></rect>
                    <path d="M33.4090909,18.7398119 L46.7727273,18.7398119" id="Path-123" stroke="#537EFF" stroke-width="2.67299992" fill="#FFFFFF" stroke-linecap="round" stroke-linejoin="round"></path>
                    <path d="M33.4090909,26.7711599 L46.7727273,26.7711599" id="Path-123-Copy" stroke="#537EFF" stroke-width="2.67299992" fill="#FFFFFF" stroke-linecap="round" stroke-linejoin="round"></path>
                    <path d="M33.4090909,34.8025078 L46.7727273,34.8025078" id="Path-123-Copy-2" stroke="#537EFF" stroke-width="2.67299992" fill="#FFFFFF" stroke-linecap="round" stroke-linejoin="round"></path>
                </g>
                <g id="chat" transform="translate(82.854545, 40.156740)">
                    <rect id="cont" fill="#181818" opacity="0" x="0" y="0" width="58.8" height="58.8965517"></rect>
                    <path d="M28.0636364,45.5109718 L20.0454545,53.5423197 L12.0272727,45.5109718 L6.68563914,45.5109718 C5.20742237,45.5109718 4.00909091,44.3064068 4.00909091,42.8455758 L4.00909091,10.6967439 C4.00909091,9.22468639 5.21429151,8.03134796 6.68563914,8.03134796 L52.1143609,8.03134796 C53.5925776,8.03134796 54.7909091,9.23591298 54.7909091,10.6967439 L54.7909091,42.8455758 C54.7909091,44.3176334 53.5857085,45.5109718 52.1143609,45.5109718 L28.0636364,45.5109718 Z" id="Rectangle-34-Copy-5" stroke="#537EFF" stroke-width="2.67299992" fill="#FFFFFF" stroke-linejoin="round"></path>
                    <path d="M12.0272727,18.7398119 L46.7727273,18.7398119" id="Path-147" stroke="#537EFF" stroke-width="2.67299992" stroke-linecap="round" stroke-linejoin="round"></path>
                    <path d="M12.0272727,26.7711599 L46.7727273,26.7711599" id="Path-147-Copy" stroke="#537EFF" stroke-width="2.67299992" stroke-linecap="round" stroke-linejoin="round"></path>
                    <path d="M12.0272727,34.8025078 L46.7727273,34.8025078" id="Path-147-Copy-2" stroke="#537EFF" stroke-width="2.67299992" stroke-linecap="round" stroke-linejoin="round"></path>
                </g>
                <g id="cloud" transform="translate(359.927273, 171.156576)">
                    <rect id="cont" fill="#181818" opacity="0" x="0" y="0" width="58.8" height="58.8965517"></rect>
                    <path d="M24.0545455,40.1567398 L14.7,40.1567398 C8.79557395,40.1567398 4.00909091,35.3623972 4.00909091,29.4482759 C4.00909091,23.5341545 8.79557395,18.7398119 14.7,18.7398119 C15.4350039,11.2352725 21.7318325,5.35423197 29.4,5.35423197 C37.0681675,5.35423197 43.3649961,11.2352725 44.0400882,18.7399765 C50.0044261,18.7398119 54.7909091,23.5341545 54.7909091,29.4482759 C54.7909091,35.3623972 50.0044261,40.1567398 44.1,40.1567398 L34.7454545,40.1567398" id="Oval-25" stroke="#537EFF" stroke-width="2.67299992" fill="#FFFFFF" stroke-linecap="round" stroke-linejoin="round"></path>
                    <path d="M29.4,54.8808777 L29.4,22.7554859" id="Path-4" stroke="#537EFF" stroke-width="2.67299992" stroke-linecap="round"></path>
                    <polyline id="Path-5" stroke="#537EFF" stroke-width="2.67299992" stroke-linecap="round" stroke-linejoin="round" points="21.3818182 29.4482759 29.4 21.4169279 37.4181818 29.4482759"></polyline>
                </g>
                <g id="mail" transform="translate(24.054545, 153.934169)">
                    <rect id="cont" fill="#181818" opacity="0" x="0" y="0" width="58.8" height="58.8965517"></rect>
                    <path d="M6.68563914,10.7084639 C5.20742237,10.7084639 4.00909091,11.913029 4.00909091,13.3738599 L4.00909091,45.5226918 C4.00909091,46.9947493 5.21429151,48.1880878 6.68563914,48.1880878 L52.1143609,48.1880878 C53.5925776,48.1880878 54.7909091,46.9835228 54.7909091,45.5226918 L54.7909091,13.3738599 C54.7909091,11.9018024 53.5857085,10.7084639 52.1143609,10.7084639 L6.68563914,10.7084639 Z" id="Path-31" stroke="#537EFF" stroke-width="2.67299992" fill="#FFFFFF"></path>
                    <path d="M9.35454545,16.0626959 L25.6296033,32.364478 C27.7119359,34.4502299 31.0917883,34.4464996 33.1703967,32.364478 L49.4454545,16.0626959" id="Path-82" stroke="#537EFF" stroke-width="2.67299992" stroke-linecap="round" stroke-linejoin="round"></path>
                    <path d="M9.35454545,36.1410658 L18.7090909,26.7711599" id="Path-83" stroke="#537EFF" stroke-width="2.67299992" stroke-linecap="round" stroke-linejoin="round"></path>
                    <path d="M49.4454545,36.1410658 L40.0909091,26.7711599" id="Path-83-Copy" stroke="#537EFF" stroke-width="2.67299992" stroke-linecap="round" stroke-linejoin="round"></path>
                </g>
                <g id="pc&amp;phone" transform="translate(191.545455, 18.764823)">
                    <rect id="Rectangle-28" fill="#FFFFFF" x="9.35454545" y="9.36990596" width="48.1090909" height="32.1253918"></rect>
                    <rect id="Rectangle-179-Copy" fill="#181818" opacity="0" x="0" y="0" width="58.8" height="58.8965517"></rect>
                    <path d="M9.35454545,26.7711599 L9.35454545,12.0507165 C9.35454545,10.5701457 10.5437655,9.36990596 12.0268815,9.36990596 L54.7913003,9.36990596 C56.2671907,9.36990596 57.4636364,10.5609056 57.4636364,12.0518339 L57.4636364,40.1519279 C57.4636364,41.6331158 56.2752593,42.8338558 54.7885794,42.8338558 L14.7,42.8338558" id="Rectangle-138" stroke="#537EFF" stroke-width="2.67299992" stroke-linecap="round" stroke-linejoin="round"></path>
                    <path d="M29.4,42.8338558 L28.0636364,50.8652038" id="Path-57" stroke="#537EFF" stroke-width="2.67299992" fill="#FFFFFF"></path>
                    <path d="M37.4181818,42.8338558 L38.7545455,49.5266458" id="Path-57-Copy" stroke="#537EFF" stroke-width="2.67299992" fill="#FFFFFF"></path>
                    <path d="M25.3909091,50.8652038 L41.4272727,50.8652038" id="Path-58" stroke="#537EFF" stroke-width="2.67299992" fill="#FFFFFF" stroke-linecap="round" stroke-linejoin="round"></path>
                    <rect id="Rectangle-131" stroke="#537EFF" stroke-width="2.67299992" fill="#FFFFFF" stroke-linecap="round" stroke-linejoin="round" x="2.67272727" y="25.4326019" width="13.3636364" height="24.0940439" rx="1.33649996"></rect>
                    <path d="M16.0363636,37.4796238 L56.1272727,37.4796238" id="Path-251" stroke="#537EFF" stroke-width="2.67299992" stroke-linecap="round" stroke-linejoin="round"></path>
                </g>
                <g id="phone" transform="translate(128.290909, 334.290188)">
                    <rect id="Rectangle-134-Copy-2" fill="#181818" opacity="0" x="0" y="0" width="58.8" height="58.8965517"></rect>
                    <rect id="Rectangle-34" stroke="#537EFF" stroke-width="2.67299992" fill="#FFFFFF" x="13.3636364" y="2.67711599" width="32.0727273" height="53.5423197" rx="4.00949987"></rect>
                    <ellipse id="Oval-7" stroke="#537EFF" stroke-width="2.67299992" cx="29.4" cy="48.1880878" rx="2.67272727" ry="2.67711599"></ellipse>
                    <path d="M26.7272727,8.03134796 L32.0727273,8.03134796" id="Path-19" stroke="#537EFF" stroke-width="2.67299992" stroke-linecap="round" stroke-linejoin="round"></path>
                </g>
                <g id="notebook" transform="translate(244.109091, 334.290188)">
                    <rect id="cont" fill="#181818" opacity="0" x="0" y="0" width="58.8" height="58.8965517"></rect>
                    <rect id="Rectangle-24" stroke="#537EFF" stroke-width="2.67299992" fill="#FFFFFF" x="6.68181818" y="8.03134796" width="45.4363636" height="32.1253918" rx="2.67299992"></rect>
                    <path d="M5.93855563,41.2734643 C6.3490482,40.6567144 7.28976241,40.1567398 8.0170354,40.1567398 L50.7829646,40.1567398 C51.5203847,40.1567398 52.4525639,40.6591366 52.8614444,41.2734643 L57.4636364,48.1880878 L1.33636364,48.1880878 L5.93855563,41.2734643 Z" id="Rectangle-34" stroke="#537EFF" stroke-width="2.67299992" fill="#FFFFFF" stroke-linejoin="round"></path>
                    <path d="M1.33636364,48.1880878 L57.4636364,48.1880878 L57.4636364,50.8652038 C57.4636364,52.3437341 56.2653721,53.5423197 54.7942604,53.5423197 L4.00573955,53.5423197 C2.53148394,53.5423197 1.33636364,52.3540421 1.33636364,50.8652038 L1.33636364,48.1880878 Z" id="Rectangle-111" stroke="#537EFF" stroke-width="2.67299992" fill="#FFFFFF" stroke-linecap="round" stroke-linejoin="round"></path>
                </g>
            </g>
        </g>
    </g>
</svg>