<?xml version="1.0" encoding="UTF-8" standalone="no"?>
<svg width="79px" height="28px" viewBox="0 0 79 28" version="1.1" xmlns="http://www.w3.org/2000/svg" xmlns:xlink="http://www.w3.org/1999/xlink">
    <!-- Generator: Sketch 49.3 (51167) - http://www.bohemiancoding.com/sketch -->
    <title>Page 1</title>
    <desc>Created with Sketch.</desc>
    <defs>
        <polygon id="path-1" points="0.318974118 0.828333333 10.6938118 0.828333333 10.6938118 14.9333333 0.318974118 14.9333333"></polygon>
        <polygon id="path-3" points="0.817138824 0.82796 12.0658094 0.82796 12.0658094 14.9333333 0.817138824 14.9333333"></polygon>
        <polygon id="path-5" points="0 27.7319467 78.5408706 27.7319467 78.5408706 -0.000186666663 0 -0.000186666663"></polygon>
    </defs>
    <g id="Page-1" stroke="none" stroke-width="1" fill="none" fill-rule="evenodd">
        <g id="sing_landing" transform="translate(-236.000000, -2861.000000)">
            <g id="Page-1" transform="translate(236.000000, 2861.000000)">
                <g id="Group-3" transform="translate(67.847059, 12.798613)">
                    <mask id="mask-2" fill="white">
                        <use xlink:href="#path-1"></use>
                    </mask>
                    <g id="Clip-2"></g>
                    <path d="M0.516938824,11.3274 L0.516938824,14.9338 L7.00423294,14.9338 C8.33329176,14.9338 10.6149976,13.9575333 10.6939976,11.2275333 L10.6939976,9.83313333 C10.6939976,7.5026 8.78963294,6.1278 7.00423294,6.1278 L3.77080941,6.1278 L3.77080941,4.45433333 L10.1781741,4.45433333 L10.1781741,0.828333333 L4.02825647,0.828333333 C2.44082118,0.828333333 0.318974118,2.1434 0.318974118,4.5934 L0.318974118,5.84873333 C0.318974118,8.29873333 2.42130353,9.55406667 4.02825647,9.55406667 C8.49222118,9.5746 2.95664471,9.55406667 7.08323294,9.55406667 L7.08323294,11.3078" id="Fill-1" fill="#CC0000" mask="url(#mask-2)"></path>
                </g>
                <path d="M32.1385941,20.3407867 L29.1031353,20.3407867 L29.1031353,17.09372 L32.1581118,17.09372 C32.1581118,17.09372 33.0113118,17.4119867 33.0113118,18.7074533 C33.0113118,20.0019867 32.1385941,20.3407867 32.1385941,20.3407867 Z M33.6070647,23.2490533 C33.6070647,23.2490533 37.0784176,22.9503867 37.0784176,18.4479867 C37.0784176,13.9455867 32.8728294,13.5274533 32.8728294,13.5274533 L25.2944059,13.5274533 L25.2944059,27.7318533 L29.1031353,27.7318533 L29.1031353,24.3055867 L32.3960412,27.7318533 L38.0310647,27.7318533 L33.6070647,23.2490533 Z" id="Fill-4" fill="#CC0000"></path>
                <g id="Group-8" transform="translate(38.105882, 12.798613)">
                    <mask id="mask-4" fill="white">
                        <use xlink:href="#path-3"></use>
                    </mask>
                    <g id="Clip-7"></g>
                    <path d="M8.31656235,8.41876 L4.66583294,8.41876 L4.66583294,4.97196 C4.66583294,4.97196 4.66583294,4.19542667 5.87685647,4.19542667 L7.20591529,4.19542667 C8.27659765,4.19542667 8.29704471,4.97196 8.29704471,4.97196 L8.29704471,8.41876 L8.31656235,8.41876 Z M8.37604471,0.82796 L4.50783294,0.82796 C1.75026824,0.82796 0.817138824,3.33862667 0.817138824,4.53422667 L0.817138824,14.9334267 L4.68628,14.9334267 L4.68628,12.4432933 L8.31656235,12.4432933 L8.31656235,14.9334267 L12.0658094,14.9334267 L12.0658094,4.53422667 C12.0658094,1.50556 9.32869176,0.82796 8.37604471,0.82796 Z" id="Fill-6" fill="#CC0000" mask="url(#mask-4)"></path>
                </g>
                <mask id="mask-6" fill="white">
                    <use xlink:href="#path-5"></use>
                </mask>
                <g id="Clip-10"></g>
                <polygon id="Fill-9" fill="#CC0000" mask="url(#mask-6)" points="51.9373882 27.7319467 55.9645294 27.7319467 55.9645294 13.62648 51.9373882 13.62648"></polygon>
                <polygon id="Fill-11" fill="#CC0000" mask="url(#mask-6)" points="61.6188847 24.08616 61.6188847 13.6272267 57.6112612 13.6272267 57.6112612 24.08616 57.6112612 27.73176 61.6188847 27.73176 67.0345671 27.73176 67.0345671 24.08616"></polygon>
                <path d="M1.38872706,27.7319467 L17.0613976,27.7319467 C17.0613976,27.7319467 14.0659035,14.0054133 23.9845859,8.44741333 C26.1473271,7.39088 33.03148,3.44661333 44.2996682,11.8139467 C44.6565624,11.51528 44.9939388,11.2763467 44.9939388,11.2763467 C44.9939388,11.2763467 34.6783976,0.935946667 23.1917976,2.09141333 C17.4182918,2.60941333 10.3157271,7.88928 6.15010353,14.8622133 C1.98355059,21.8351467 1.38872706,27.7319467 1.38872706,27.7319467" id="Fill-12" fill="#CC0000" mask="url(#mask-6)"></path>
                <path d="M1.38872706,27.7319467 L17.0613976,27.7319467 C17.0613976,27.7319467 14.0659035,14.0054133 23.9845859,8.44741333 C26.1473271,7.39088 33.03148,3.44661333 44.2996682,11.8139467 C44.6565624,11.51528 44.9939388,11.2763467 44.9939388,11.2763467 C44.9939388,11.2763467 34.6783976,0.935946667 23.1917976,2.09141333 C17.4182918,2.60941333 10.3157271,7.88928 6.15010353,14.8622133 C1.98355059,21.8351467 1.38872706,27.7319467 1.38872706,27.7319467" id="Fill-13" fill="#CC0000" mask="url(#mask-6)"></path>
                <path d="M1.38872706,27.7319467 L17.0613976,27.7319467 C17.0613976,27.7319467 14.0659035,14.0054133 23.9845859,8.44741333 C26.1473271,7.39088 33.03148,3.44661333 44.2996682,11.8139467 C44.6565624,11.51528 44.9939388,11.2763467 44.9939388,11.2763467 C44.9939388,11.2763467 34.6783976,0.935946667 23.1917976,2.09141333 C17.3987741,2.60941333 10.2962094,7.88928 6.13058588,14.8622133 C1.96403294,21.8351467 1.38872706,27.7319467 1.38872706,27.7319467" id="Fill-14" fill="#CC0000" mask="url(#mask-6)"></path>
                <path d="M34.0431447,3.20749333 L34.1221447,1.87282667 C33.9436976,1.77296 33.4483212,1.53402667 32.1982624,1.17562667 L32.1192624,2.49069333 C32.7735682,2.70909333 33.4083565,2.94896 34.0431447,3.20749333" id="Fill-15" fill="#CC0000" mask="url(#mask-6)"></path>
                <path d="M32.1584835,7.43101333 L32.0794835,8.68634667 C32.7337894,8.70594667 33.3880953,8.78528 34.0433306,8.92528 L34.1223306,7.68954667 C33.4475776,7.55048 32.7932718,7.47114667 32.1584835,7.43101333" id="Fill-16" fill="#CC0000" mask="url(#mask-6)"></path>
                <path d="M24.8181753,1.21529333 L25.01614,1.21529333 L24.6202106,9.33333317e-05 C24.00494,9.33333317e-05 23.3701518,0.0402266667 22.7149165,0.11956 L23.0922576,1.29462667 C23.6675635,1.23489333 24.2428694,1.21529333 24.8181753,1.21529333" id="Fill-17" fill="#CC0000" mask="url(#mask-6)"></path>
                <path d="M25.7704506,8.54672 L26.2267918,9.92152 C26.8020976,9.64245333 27.3774035,9.40352 27.9527094,9.22432 L27.5158859,7.90925333 C26.8420624,8.10805333 26.2667565,8.32738667 25.7704506,8.54672" id="Fill-18" fill="#CC0000" mask="url(#mask-6)"></path>
                <path d="M16.7636141,3.30717333 L15.8704494,1.93237333 C15.3750729,2.19184 14.8592494,2.46997333 14.3239082,2.78917333 L15.2356612,4.18357333 C15.7514847,3.86530667 16.2477906,3.56570667 16.7636141,3.30717333" id="Fill-19" fill="#CC0000" mask="url(#mask-6)"></path>
                <path d="M20.8306271,12.2722133 L21.7832741,13.7067467 C22.1197212,13.2083467 22.51658,12.75008 22.9534035,12.2918133 L22.0602388,10.9375467 C21.6038976,11.35568 21.1875212,11.8139467 20.8306271,12.2722133" id="Fill-20" fill="#CC0000" mask="url(#mask-6)"></path>
                <path d="M17.9540047,18.6872 L19.5609576,19.9621333 C19.6399576,19.1856 19.7793694,18.4081333 19.9773341,17.6316 L18.5488282,16.4957333 C18.2913812,17.2330667 18.1129341,17.9704 17.9540047,18.6872" id="Fill-21" fill="#CC0000" mask="url(#mask-6)"></path>
                <path d="M9.26465529,9.22404 L7.85566706,7.98924 C7.34077294,8.48670667 6.84446706,8.98510667 6.38812588,9.48257333 L7.91607882,10.79764 C8.33245529,10.26004 8.78879647,9.72244 9.26465529,9.22404" id="Fill-22" fill="#CC0000" mask="url(#mask-6)"></path>
                <path d="M3.27338824,18.1293467 L0.991682353,17.29308 C0.615270588,18.1489467 0.197964706,19.1457467 0,19.6833467 L2.28170588,20.5196133 C2.53915294,19.8429467 2.95552941,18.86668 3.27338824,18.1293467" id="Fill-23" fill="#CC0000" mask="url(#mask-6)"></path>
                <path d="M17.6564071,23.7474533 C17.6963718,24.8030533 17.7948894,25.6598533 17.8943365,26.25812 L20.2754894,27.1139867 C20.0961129,26.3374533 19.9176659,25.4610533 19.7987012,24.5239867 L17.6564071,23.7474533 Z" id="Fill-24" fill="#CC0000" mask="url(#mask-6)"></path>
            </g>
        </g>
    </g>
</svg>