<?xml version="1.0" encoding="UTF-8" standalone="no"?>
<svg width="38px" height="34px" viewBox="0 0 38 34" version="1.1" xmlns="http://www.w3.org/2000/svg" xmlns:xlink="http://www.w3.org/1999/xlink">
    <!-- Generator: Sketch 49.3 (51167) - http://www.bohemiancoding.com/sketch -->
    <title>Page 1</title>
    <desc>Created with Sketch.</desc>
    <defs>
        <polygon id="path-1" points="0.00031147541 0.381459651 37.3770492 0.381459651 37.3770492 33.3818182 0.00031147541 33.3818182"></polygon>
    </defs>
    <g id="Page-1" stroke="none" stroke-width="1" fill="none" fill-rule="evenodd">
        <g id="sing_landing" transform="translate(-236.000000, -2274.000000)">
            <g id="Page-1" transform="translate(236.000000, 2274.000000)">
                <g id="Group-3" transform="translate(0.000000, 0.236764)">
                    <mask id="mask-2" fill="white">
                        <use xlink:href="#path-1"></use>
                    </mask>
                    <g id="Clip-2"></g>
                    <path d="M29.8022787,21.3621382 C29.5979508,21.42952 29.3880164,21.4938109 29.1743443,21.5568655 C28.7015246,20.0707564 28.063,18.4906836 27.2818197,16.8580655 C28.0274918,15.2643927 28.6410984,13.7041018 29.1008361,12.2278836 C29.4833279,12.33792 29.8539836,12.45352 30.2115574,12.57592 C33.6708033,13.7572655 35.7807377,15.5042473 35.7807377,16.8500291 C35.7807377,18.2842109 33.5019836,20.1455564 29.8022787,21.3621382 M28.4467377,29.2761018 C28.2243443,30.46672 27.7764426,31.2604655 27.2226393,31.5788291 C26.0452623,32.25512 23.5260492,31.3754473 20.8093607,29.0560291 C20.4978852,28.7902109 20.183918,28.5058473 19.8693279,28.2054109 C20.9227377,27.0623927 21.9755246,25.7333018 23.0027705,24.2577018 C24.8093279,24.0988291 26.5168361,23.8385745 28.0648689,23.4837382 C28.1408689,23.7885018 28.2087705,24.08832 28.2673279,24.38072 C28.6410984,26.2556655 28.6946721,27.95072 28.4467377,29.2761018 M18.7505082,27.0716655 C17.993623,26.2612291 17.2392295,25.3648655 16.5016557,24.4005018 C17.2174262,24.4289382 17.9469016,24.4425382 18.6888361,24.4425382 C19.4507049,24.4425382 20.2038525,24.4258473 20.944541,24.3930836 C20.2169344,25.3747564 19.4818525,26.2723564 18.7505082,27.0716655 M16.9271311,28.8625382 C15.4769016,30.1205382 14.0235574,31.0125745 12.7427705,31.4619927 C11.5915574,31.8650473 10.6751967,31.8767927 10.1213934,31.5596655 C8.94214754,30.8846109 8.45188525,28.2795927 9.12093443,24.7856291 C9.20004918,24.3726836 9.291,23.9622109 9.39378689,23.5542109 C10.924377,23.8905018 12.6194262,24.1322109 14.4303443,24.2781018 C15.4644426,25.7221745 16.5477541,27.0494109 17.6391639,28.2115927 C17.4068033,28.4341382 17.169459,28.65112 16.9271311,28.8625382 M8.27372131,21.6397018 C7.96411475,21.55192 7.65637705,21.4561018 7.35113115,21.3534836 C5.52837705,20.7353018 4.02332787,19.9316655 2.99172131,19.0550836 C2.06477049,18.26752 1.59693443,17.4849018 1.59693443,16.8500291 C1.59693443,15.49992 3.62588525,13.7770473 7.01037705,12.6062109 C7.43460656,12.4597018 7.86381967,12.3261745 8.29677049,12.2043927 C8.76460656,13.7139927 9.37759016,15.2928291 10.1182787,16.8889745 C9.3682459,18.5086109 8.74591803,20.1121745 8.27372131,21.6397018 M10.0964754,2.22137455 C11.3467377,1.50304727 14.1120164,2.52737455 17.0261803,5.09468364 C17.2124426,5.25912 17.3993279,5.43097455 17.5868361,5.60901091 C16.5010328,6.76562909 15.4283115,8.08297455 14.4029344,9.51901091 C12.6449672,9.68035636 10.962377,9.93999273 9.41559016,10.2880291 C9.32027869,9.90908364 9.23431148,9.52828364 9.15831148,9.14501091 L9.15831148,9.14562909 C8.4562459,5.58304727 8.92221311,2.89519273 10.0964754,2.22137455 M18.7062787,6.74090182 C19.4426066,7.53279273 20.1801803,8.41679273 20.905918,9.37621091 C19.4345082,9.30697455 17.9599836,9.30635636 16.4885738,9.37497455 C17.2143115,8.42482909 17.9581148,7.54206545 18.7062787,6.74090182 M26.3567377,15.0257745 C26.011,14.3754473 25.6528033,13.73192 25.2815246,13.0958109 C24.9158525,12.4695927 24.5370984,11.8514109 24.1446393,11.2412655 C25.3375902,11.3902473 26.480082,11.5893018 27.5528033,11.8322473 C27.2307377,12.8565745 26.8289344,13.9278836 26.3567377,15.0257745 M25.2877541,20.6598836 C25.6633934,20.0126473 26.0253279,19.3573745 26.3716885,18.6946836 C26.8712951,19.82472 27.2924098,20.9176655 27.6269344,21.9574473 C26.543,22.2028655 25.3730984,22.4006836 24.1402787,22.5471927 C24.5352295,21.92592 24.9177213,21.2966109 25.2877541,20.6598836 M11.8830984,16.8883564 C12.3752295,15.8720655 12.9053607,14.8749382 13.4728689,13.8982109 C14.040377,12.9214836 14.6446393,11.9663927 15.2850328,11.0354109 C16.397,10.9519564 17.536377,10.9080655 18.6888361,10.9080655 C19.8462787,10.9080655 20.9869016,10.9525745 22.0982459,11.0366473 C22.7324098,11.9663927 23.3329344,12.9177745 23.8991967,13.8895564 C24.4685738,14.8644291 25.0061803,15.8566109 25.5107705,16.8661018 C25.0111639,17.8854836 24.4760492,18.8869382 23.9048033,19.8679927 C23.338541,20.8441018 22.7405082,21.8016655 22.1113279,22.7394473 C21.0024754,22.8179564 19.8562459,22.8581382 18.6888361,22.8581382 C17.5257869,22.8581382 16.3938852,22.8222836 15.3043443,22.7524291 C14.6589672,21.81712 14.0497213,20.8577018 13.4778525,19.8766473 C12.9084754,18.9011564 12.3764754,17.9040291 11.8830984,16.8883564 M11.0346393,15.0251564 C10.5692951,13.9303564 10.1712295,12.85472 9.84667213,11.8155564 C10.9131639,11.5787927 12.0500492,11.3853018 13.2355246,11.2381745 C12.8387049,11.8520291 12.4568361,12.4751564 12.0892951,13.1069382 C11.723,13.7381018 11.3710328,14.3773018 11.0346393,15.0251564 M11.0358852,18.7515564 C11.3741475,19.3994109 11.7273607,20.0392291 12.0961475,20.6710109 C12.4717869,21.3145382 12.863,21.9500291 13.2691639,22.5756291 C12.0450656,22.4402473 10.8907377,22.2560291 9.82486885,22.0260655 C10.1544098,20.9683564 10.5611967,19.8692291 11.0358852,18.7515564 M20.6847705,4.82577455 C23.4444426,2.44268364 26.023459,1.50119273 27.1983443,2.17377455 C28.4498525,2.89024727 28.937,5.77901091 28.1502131,9.56722909 C28.0991311,9.81388364 28.0430656,10.05992 27.9826393,10.30472 C26.4314918,9.94926545 24.7476557,9.68530182 22.9847049,9.52086545 C21.957459,8.06937455 20.893459,6.75017455 19.8250984,5.60777455 C20.1054262,5.34010182 20.3919836,5.07922909 20.6847705,4.82577455 M30.7317213,11.0774473 C30.3336557,10.9420655 29.9324754,10.8165745 29.5281803,10.7009745 C29.595459,10.4308291 29.6571311,10.1594473 29.7144426,9.88682909 C30.6251967,5.49959273 30.0296557,1.96482909 27.9957213,0.801410909 C26.0458852,-0.314407273 22.857,0.849010909 19.6363443,3.63021091 C19.3192623,3.90468364 19.0090328,4.18719273 18.7056557,4.47773818 C18.5031967,4.28486545 18.296377,4.09570182 18.0864426,3.91024727 C14.7112951,0.936174545 11.3280492,-0.31688 9.29660656,0.849629091 C7.34863934,1.96853818 6.77178689,5.29188364 7.59159016,9.44977455 C7.67319672,9.86148364 7.76539344,10.2713382 7.86755738,10.6781018 C7.38913115,10.8128655 6.92690164,10.9569018 6.48460656,11.1102109 C2.527,12.4788655 0.00031147541,14.6245745 0.00031147541,16.8500291 C0.00031147541,19.1490473 2.71263934,21.4548655 6.83470492,22.8525745 C7.16922951,22.9657018 7.5062459,23.0701745 7.84513115,23.1659927 C7.73486885,23.6049018 7.63706557,24.0462836 7.55172131,24.4901382 C6.76991803,28.57632 7.38040984,31.81992 9.32339344,32.9320291 C11.329918,34.0806109 14.6982131,32.9005018 17.9774262,30.0556291 C18.2365738,29.8306109 18.4969672,29.5919927 18.7573607,29.3422473 C19.0856557,29.6562836 19.4226721,29.9616655 19.7677869,30.2571564 C22.9448361,32.9697382 26.0820164,34.0651564 28.0231311,32.9499564 C30.0277869,31.7982836 30.6793934,28.3129745 29.8334262,24.0728655 C29.7686393,23.7489382 29.6938852,23.4182109 29.6091639,23.0813018 C29.8458852,23.0120655 30.077623,22.9403564 30.304377,22.8661745 C34.5890328,21.4573382 37.3773607,19.1799564 37.3773607,16.8500291 C37.3773607,14.6165382 34.7684426,12.4566109 30.7317213,11.0774473" id="Fill-1" fill="#61DAFB" mask="url(#mask-2)"></path>
                </g>
                <path d="M18.6885246,20.39932 C20.5318361,20.39932 22.0262951,18.9163018 22.0262951,17.0871018 C22.0262951,15.2579018 20.5318361,13.7748836 18.6885246,13.7748836 C16.8452131,13.7748836 15.3507541,15.2579018 15.3507541,17.0871018 C15.3507541,18.9163018 16.8452131,20.39932 18.6885246,20.39932" id="Fill-4" fill="#61DAFB"></path>
            </g>
        </g>
    </g>
</svg>