<?xml version="1.0" encoding="UTF-8" standalone="no"?>
<svg width="32px" height="34px" viewBox="0 0 32 34" version="1.1" xmlns="http://www.w3.org/2000/svg" xmlns:xlink="http://www.w3.org/1999/xlink">
    <!-- Generator: Sketch 49.3 (51167) - http://www.bohemiancoding.com/sketch -->
    <title>Page 1</title>
    <desc>Created with Sketch.</desc>
    <defs></defs>
    <g id="Page-1" stroke="none" stroke-width="1" fill="none" fill-rule="evenodd">
        <g id="sing_landing" transform="translate(-1000.000000, -2276.000000)">
            <g id="Page-1" transform="translate(1000.000000, 2276.000000)">
                <polygon id="Fill-1" fill="#B3B3B3" points="15.6616615 -0.000123636364 0.000123076923 5.53693091 2.4752 26.1489673 15.6782769 33.4391855 28.9496615 26.0506764 31.4235077 5.43864"></polygon>
                <polygon id="Fill-2" fill="#A6120D" points="29.8614154 6.62993818 15.6251077 1.75310182 15.6251077 31.6972109 27.5555692 25.06412"></polygon>
                <polygon id="Fill-3" fill="#DD1B16" points="1.75747692 6.71784364 3.87809231 25.1526436 15.6251692 31.6973345 15.6251692 1.75260727"></polygon>
                <path d="M19.1649846,16.7670691 L15.6511385,9.77852364 L12.7686769,16.6465236 L15.6246769,16.6465236 L19.1649846,16.7670691 Z M19.5440615,17.6937236 L15.6252923,19.5346691 L11.4948308,19.5346691 L9.55329231,24.4127418 L5.9416,24.4801236 L15.6252923,2.84066909 L19.5440615,17.6937236 Z" id="Fill-4" fill="#F2F2F2"></path>
                <polygon id="Fill-5" fill="#B3B3B3" points="15.6248615 2.84042182 15.6507077 9.77889455 18.9214769 16.65184 15.6322462 16.65184 15.6248615 19.5300945 20.1731692 19.5344218 22.2987077 24.4811127 25.7540923 24.5454036"></polygon>
            </g>
        </g>
    </g>
</svg>