<?xml version="1.0" encoding="UTF-8" standalone="no"?>
<svg width="30px" height="41px" viewBox="0 0 30 41" version="1.1" xmlns="http://www.w3.org/2000/svg" xmlns:xlink="http://www.w3.org/1999/xlink">
    <!-- Generator: Sketch 49.3 (51167) - http://www.bohemiancoding.com/sketch -->
    <title>Page 1</title>
    <desc>Created with Sketch.</desc>
    <defs></defs>
    <g id="Page-1" stroke="none" stroke-width="1" fill="none" fill-rule="evenodd">
        <g id="sing_landing" transform="translate(-1000.000000, -2861.000000)">
            <g id="Page-1" transform="translate(1000.000000, 2861.000000)">
                <path d="M22.2657955,-0.00013442623 L22.2657955,5.52545574 L26.7821591,5.52545574 L26.7821591,3.69927541 L24.1346591,3.69927541 L24.1346591,-0.00013442623 L22.2657955,-0.00013442623 Z M19.3823864,-0.00013442623 L18.1796591,1.94568525 L16.9776136,-0.00013442623 L15.0201136,-0.00013442623 L15.0201136,5.52545574 L16.85625,5.52545574 L16.85625,2.78652131 L18.1639773,4.77266885 L19.4710227,2.78652131 L19.4710227,5.52545574 L21.3398864,5.52545574 L21.3398864,-0.00013442623 L19.3823864,-0.00013442623 Z M9.02488636,-0.00013442623 L9.02488636,1.84150492 L10.6742045,1.84150492 L10.6742045,5.52545574 L12.5423864,5.52545574 L12.5423864,1.84150492 L14.1998864,1.84150492 L14.1998864,-0.00013442623 L9.02488636,-0.00013442623 Z M6.33647727,-0.00013442623 L6.33647727,1.82537377 L4.61420455,1.82537377 L4.61420455,-0.00013442623 L2.74534091,-0.00013442623 L2.74534091,5.52545574 L4.63056818,5.52545574 L4.63056818,3.68381639 L6.33647727,3.68381639 L6.33647727,5.52545574 L8.20465909,5.52545574 L8.20465909,-0.00013442623 L6.33647727,-0.00013442623 Z" id="Fill-1" fill="#000000"></path>
                <polygon id="Fill-2" fill="#E44D26" points="0 8.05555902 2.68022727 37.7167066 14.7115909 41.0000672 26.79 37.7005754 29.4709091 8.05555902"></polygon>
                <polyline id="Fill-3" fill="#F16529" points="14.7355227 38.477559 14.7355227 10.490018 26.7825682 10.490018 24.4834773 35.7950836"></polyline>
                <path d="M6.64479545,26.9302787 L10.3491136,26.9302787 L10.6088864,29.8372459 L14.73525,30.9260984 L14.73525,34.721623 L7.16502273,32.6400328 M5.47479545,14.1181148 L14.73525,14.1181148 L14.73525,17.753 L9.52070455,17.753 L9.86161364,21.4772787 L14.73525,21.4772787 L14.73525,25.1047705 L6.48252273,25.1047705" id="Fill-4" fill="#EBEBEB"></path>
                <path d="M23.2892727,21.4769426 L14.7195,21.4769426 L14.7195,25.1125 L19.2685909,25.1125 L18.8376818,29.8369098 L14.7195,30.9264344 L14.7195,34.7058279 L22.2740455,32.6396967 M23.9635909,14.1177787 L14.7195,14.1177787 L14.7195,17.7533361 L23.622,17.7533361" id="Fill-5" fill="#FFFFFF"></path>
            </g>
        </g>
    </g>
</svg>