<svg width="191" height="141" viewBox="0 0 191 141" fill="none" xmlns="http://www.w3.org/2000/svg">
<path d="M191 0H0V141H191V0Z" fill="#474D84"/>
<path d="M77.4316 69.5H76.377V62.7793C76.123 63.0215 75.7891 63.2637 75.375 63.5059C74.9648 63.748 74.5957 63.9297 74.2676 64.0508V63.0312C74.8574 62.7539 75.373 62.418 75.8145 62.0234C76.2559 61.6289 76.5684 61.2461 76.752 60.875H77.4316V69.5ZM80.2969 67.5137L81.3105 67.4199C81.3965 67.8965 81.5605 68.2422 81.8027 68.457C82.0449 68.6719 82.3555 68.7793 82.7344 68.7793C83.0586 68.7793 83.3418 68.7051 83.584 68.5566C83.8301 68.4082 84.0312 68.2109 84.1875 67.9648C84.3438 67.7148 84.4746 67.3789 84.5801 66.957C84.6855 66.5352 84.7383 66.1055 84.7383 65.668C84.7383 65.6211 84.7363 65.5508 84.7324 65.457C84.5215 65.793 84.2324 66.0664 83.8652 66.2773C83.502 66.4844 83.1074 66.5879 82.6816 66.5879C81.9707 66.5879 81.3691 66.3301 80.877 65.8145C80.3848 65.2988 80.1387 64.6191 80.1387 63.7754C80.1387 62.9043 80.3945 62.2031 80.9062 61.6719C81.4219 61.1406 82.0664 60.875 82.8398 60.875C83.3984 60.875 83.9082 61.0254 84.3691 61.3262C84.834 61.627 85.1855 62.0566 85.4238 62.6152C85.666 63.1699 85.7871 63.9746 85.7871 65.0293C85.7871 66.127 85.668 67.002 85.4297 67.6543C85.1914 68.3027 84.8359 68.7969 84.3633 69.1367C83.8945 69.4766 83.3438 69.6465 82.7109 69.6465C82.0391 69.6465 81.4902 69.4609 81.0645 69.0898C80.6387 68.7148 80.3828 68.1895 80.2969 67.5137ZM84.6152 63.7227C84.6152 63.1172 84.4531 62.6367 84.1289 62.2812C83.8086 61.9258 83.4219 61.748 82.9688 61.748C82.5 61.748 82.0918 61.9395 81.7441 62.3223C81.3965 62.7051 81.2227 63.2012 81.2227 63.8105C81.2227 64.3574 81.3867 64.8027 81.7148 65.1465C82.0469 65.4863 82.4551 65.6562 82.9395 65.6562C83.4277 65.6562 83.8281 65.4863 84.1406 65.1465C84.457 64.8027 84.6152 64.3281 84.6152 63.7227ZM90.791 69.5H89.7363V62.7793C89.4824 63.0215 89.1484 63.2637 88.7344 63.5059C88.3242 63.748 87.9551 63.9297 87.627 64.0508V63.0312C88.2168 62.7539 88.7324 62.418 89.1738 62.0234C89.6152 61.6289 89.9277 61.2461 90.1113 60.875H90.791V69.5ZM93.0879 69.5L95.3613 66.2656L93.2578 63.2773H94.5762L95.5312 64.7363C95.7109 65.0137 95.8555 65.2461 95.9648 65.4336C96.1367 65.1758 96.2949 64.9473 96.4395 64.748L97.4883 63.2773H98.748L96.5977 66.207L98.9121 69.5H97.6172L96.3398 67.5664L96 67.0449L94.3652 69.5H93.0879ZM103.471 69.5H102.416V62.7793C102.162 63.0215 101.828 63.2637 101.414 63.5059C101.004 63.748 100.635 63.9297 100.307 64.0508V63.0312C100.896 62.7539 101.412 62.418 101.854 62.0234C102.295 61.6289 102.607 61.2461 102.791 60.875H103.471V69.5ZM109.559 69.5V67.4434H105.832V66.4766L109.752 60.9102H110.613V66.4766H111.773V67.4434H110.613V69.5H109.559ZM109.559 66.4766V62.6035L106.869 66.4766H109.559ZM116.83 69.5H115.775V62.7793C115.521 63.0215 115.188 63.2637 114.773 63.5059C114.363 63.748 113.994 63.9297 113.666 64.0508V63.0312C114.256 62.7539 114.771 62.418 115.213 62.0234C115.654 61.6289 115.967 61.2461 116.15 60.875H116.83V69.5Z" fill="#F4F4F5"/>
</svg>
